<?xml version="1.0" standalone="no"?>
<!DOCTYPE svg PUBLIC "-//W3C//DTD SVG 20010904//EN"
 "http://www.w3.org/TR/2001/REC-SVG-20010904/DTD/svg10.dtd">
<svg version="1.0" xmlns="http://www.w3.org/2000/svg"
 width="622.000000pt" height="622.000000pt" viewBox="0 0 622.000000 622.000000"
 preserveAspectRatio="xMidYMid meet">
<metadata>
Created by potrace 1.11, written by Peter Selinger 2001-2013
</metadata>
<g transform="translate(0.000000,622.000000) scale(0.100000,-0.100000)"
fill="#000000" stroke="none">
<path d="M3051 6096 c-19 -12 -36 -32 -37 -44 -2 -12 -4 -25 -5 -29 -1 -4 -1
-15 0 -23 1 -12 4 -11 16 4 13 17 14 16 20 -18 10 -51 -6 -273 -27 -366 -5
-25 -12 -56 -14 -70 -3 -14 -10 -43 -16 -65 -5 -22 -11 -50 -12 -62 0 -11 -4
-19 -7 -17 -10 6 -20 -61 -13 -80 7 -19 -12 -22 -19 -3 -8 18 -28 -13 -25 -38
2 -15 10 -19 28 -18 14 1 19 -1 13 -3 -17 -7 -17 -24 0 -24 20 0 41 -46 40
-87 -1 -20 -14 -63 -29 -96 -27 -55 -27 -60 -11 -72 9 -7 17 -17 17 -24 0 -6
9 -11 20 -11 26 0 35 -22 21 -49 -11 -20 -12 -20 -37 6 -14 14 -26 24 -28 22
-36 -54 -37 -58 -17 -78 19 -19 61 -19 61 0 0 5 9 1 20 -8 11 -10 20 -26 20
-37 0 -18 -1 -18 -20 -1 -11 10 -17 23 -14 29 4 6 -5 -2 -20 -19 -14 -16 -25
-41 -26 -54 0 -43 -17 -7 -19 42 -1 10 -5 16 -10 12 -5 -3 -13 0 -16 5 -4 7
-15 -5 -26 -25 -21 -38 -14 -65 17 -65 18 0 18 -6 -3 -29 -15 -19 -17 -19 -29
-3 -11 15 -14 14 -33 -8 -22 -27 -27 -50 -11 -50 6 0 10 -5 10 -11 0 -5 -5 -7
-10 -4 -6 4 -23 0 -40 -8 -21 -11 -30 -12 -33 -3 -2 6 -13 1 -24 -14 -19 -23
-20 -26 -4 -47 17 -24 31 -30 31 -13 0 6 10 5 25 -2 14 -6 25 -17 25 -25 0 -7
3 -12 8 -12 53 9 82 -20 82 -79 l0 -27 -19 31 c-25 41 -41 51 -41 25 0 -11 -8
-36 -17 -56 -16 -34 -16 -36 5 -64 19 -25 19 -31 6 -47 -13 -18 -15 -18 -35 8
l-20 28 -24 -28 c-12 -15 -25 -36 -28 -47 -3 -14 -5 -12 -6 10 -1 33 -7 43
-35 65 -12 9 -17 10 -12 3 4 -7 -1 -26 -10 -43 -17 -28 -17 -30 0 -49 18 -19
17 -20 -21 -23 -36 -3 -38 -4 -36 -37 1 -37 -6 -47 -56 -73 -40 -22 -55 -22
-71 -3 -18 21 -23 19 -44 -15 -9 -17 -20 -29 -24 -26 -4 2 -17 -9 -30 -25
l-22 -28 27 -25 c15 -14 31 -26 36 -26 4 0 16 -14 26 -31 19 -31 19 -31 33
-10 15 24 43 28 52 6 3 -8 13 -15 23 -15 10 -1 28 -6 41 -14 21 -11 22 -14 8
-25 -20 -17 -20 -35 -1 -51 34 -28 18 -40 -58 -40 -48 0 -94 -7 -133 -20 -60
-21 -133 -28 -153 -16 -6 4 -11 2 -11 -4 0 -18 71 -42 116 -38 23 1 40 0 37
-4 -2 -5 8 -8 24 -9 15 0 52 -3 81 -5 32 -3 66 1 87 10 34 14 48 36 23 36 -9
0 -9 3 -1 11 6 6 25 9 42 7 l32 -3 -30 -32 c-16 -18 -27 -34 -23 -34 41 -7 68
-6 82 1 10 5 20 6 24 2 8 -7 52 -11 144 -13 48 -1 68 4 84 18 15 13 22 15 25
6 3 -7 9 -13 14 -13 5 0 27 -12 49 -26 l39 -26 38 23 c21 12 46 29 56 37 15
13 19 13 35 -2 14 -12 37 -16 83 -16 77 1 241 6 251 9 4 0 -7 16 -23 34 l-30
32 32 3 c17 2 36 -1 42 -7 8 -8 8 -11 -1 -11 -24 0 -11 -21 22 -35 66 -28 346
8 346 44 0 5 -18 5 -39 1 -29 -5 -59 -1 -113 16 -50 16 -94 23 -141 23 -75 -2
-87 4 -69 29 23 32 24 43 8 61 -18 19 -14 22 57 45 9 3 17 12 17 20 0 20 29 9
52 -19 14 -16 17 -17 18 -4 0 9 23 35 50 58 l50 42 -22 29 c-13 15 -26 27 -30
26 -4 0 -19 13 -33 29 -23 28 -26 29 -39 13 -7 -10 -18 -18 -24 -18 -12 0 -71
30 -88 46 -7 6 -12 26 -11 45 2 33 0 34 -36 37 -38 3 -39 4 -21 23 17 19 17
22 1 48 -9 16 -14 31 -10 35 3 3 1 6 -5 6 -20 0 -42 -31 -43 -63 -1 -22 -3
-26 -6 -12 -3 11 -16 33 -29 48 l-24 28 -19 -31 -19 -32 -15 22 c-14 21 -14
25 4 50 19 25 20 29 5 65 -9 20 -16 47 -16 59 -1 19 -4 17 -30 -14 -17 -19
-31 -30 -31 -25 -6 47 23 95 53 87 12 -3 26 1 32 9 17 21 56 41 56 29 0 -17
14 -11 32 14 16 22 16 24 -4 46 -13 14 -23 19 -26 12 -2 -8 -10 -8 -25 2 -12
8 -33 13 -46 11 -21 -2 -22 0 -7 10 21 16 20 24 -5 55 -18 22 -22 23 -32 9
-12 -16 -42 -14 -31 2 3 5 -1 9 -8 9 -7 0 -1 10 14 23 l27 22 -17 37 c-16 33
-19 35 -36 22 -11 -7 -19 -26 -20 -44 -1 -35 -16 -41 -16 -7 0 13 -12 37 -26
53 -15 16 -24 24 -20 18 3 -6 -3 -19 -14 -29 -19 -17 -20 -17 -20 1 0 11 9 27
20 37 11 9 20 13 20 8 0 -16 38 -19 59 -5 20 14 20 16 4 49 -20 42 -25 43 -52
9 l-20 -25 -11 21 c-14 27 -6 50 18 50 10 0 26 13 35 30 17 29 17 30 -9 82
-14 28 -27 69 -27 89 -1 44 20 89 41 89 12 0 12 3 2 15 -8 9 -9 15 -2 15 6 0
14 -5 18 -11 4 -8 9 -7 15 2 11 18 11 40 -1 59 -7 12 -12 12 -22 2 -18 -18
-30 -14 -17 6 9 14 7 34 -11 90 -21 67 -24 71 -44 61 -21 -10 -20 -10 1 8 21
17 21 20 7 73 -41 154 -59 512 -22 446 14 -26 29 -1 18 30 -5 12 -6 24 -3 27
4 5 -71 58 -79 56 -2 0 -18 -10 -37 -23z m-26 -616 c3 -6 -1 -7 -9 -4 -18 7
-21 14 -7 14 6 0 13 -4 16 -10z m-11 -256 c6 -15 4 -15 -11 -3 -10 7 -20 15
-22 16 -2 2 3 3 11 3 9 0 19 -7 22 -16z m185 13 c-2 -1 -12 -9 -22 -16 -15
-12 -17 -12 -11 3 3 9 13 16 22 16 8 0 13 -1 11 -3z m-309 -628 c0 -15 -18
-19 -23 -6 -3 8 1 14 9 14 8 0 14 -4 14 -8z m420 -3 c-7 -7 -14 -6 -21 1 -9 9
-7 12 9 10 14 -1 18 -5 12 -11z m-420 -61 c11 -13 8 -15 -21 -14 -19 1 -26 3
-16 6 9 2 17 9 17 14 0 13 6 11 20 -6z m430 0 c11 -13 8 -15 -15 -15 -23 0
-26 2 -15 15 7 8 14 15 15 15 1 0 8 -7 15 -15z m-460 -810 c0 -10 -36 -47 -55
-57 l-20 -11 20 23 c16 18 17 24 6 28 -11 4 -11 6 0 13 15 9 49 12 49 4z m505
-1 c13 -5 14 -9 4 -15 -10 -6 -9 -13 6 -30 23 -26 2 -17 -32 14 -31 28 -18 46
22 31z m-375 -19 c-7 -8 -16 -12 -21 -9 -13 8 -1 24 18 24 13 0 13 -3 3 -15z
m225 6 c10 -17 -9 -20 -30 -5 -18 14 -18 14 2 14 12 0 24 -4 28 -9z"/>
<path d="M2794 4931 c4 -5 -2 -23 -11 -40 -18 -30 -17 -31 3 -52 l22 -21 7 21
c8 26 50 28 85 4 23 -16 24 -16 11 0 -7 9 -30 21 -51 27 -30 8 -39 16 -44 40
-3 17 -10 30 -16 30 -6 0 -9 -4 -6 -9z"/>
<path d="M3363 4910 c-4 -23 -13 -32 -37 -39 l-31 -9 33 -1 c25 -1 35 -6 39
-21 5 -20 7 -20 24 -4 23 21 24 47 4 64 -9 7 -14 19 -11 27 3 7 1 13 -5 13 -5
0 -12 -14 -16 -30z"/>
<path d="M3264 4838 l-19 -23 23 19 c21 18 27 26 19 26 -2 0 -12 -10 -23 -22z"/>
<path d="M3623 4548 c-6 -7 -15 -26 -20 -43 -7 -22 -17 -31 -36 -33 -15 -2
-27 -8 -27 -13 0 -6 5 -7 11 -4 19 12 56 -4 62 -27 l6 -22 26 24 c30 29 31 33
4 70 -12 16 -19 36 -16 44 8 19 3 21 -10 4z"/>
<path d="M2545 4540 c4 -7 -2 -25 -15 -42 -19 -26 -21 -33 -10 -54 7 -13 16
-21 21 -19 4 3 10 -1 12 -7 4 -8 8 -4 13 10 7 24 44 39 66 26 9 -5 10 -4 3 4
-5 5 -19 12 -29 14 -11 2 -24 17 -31 37 -6 19 -17 37 -25 39 -8 3 -10 0 -5 -8z"/>
<path d="M2691 4470 c2 -14 0 -30 -3 -36 -4 -6 -10 -28 -13 -50 -5 -32 -1 -44
20 -67 31 -34 51 -25 61 28 7 37 -21 110 -50 135 -16 13 -18 12 -15 -10z"/>
<path d="M3468 4473 c-48 -55 -61 -125 -29 -164 l18 -23 26 29 c28 31 33 60
17 85 -6 10 -3 22 13 40 21 24 21 24 1 7 -19 -16 -22 -16 -27 -2 -4 8 -4 22
-1 30 8 20 1 19 -18 -2z"/>
<path d="M2657 4449 c7 -7 15 -10 18 -7 3 3 -2 9 -12 12 -14 6 -15 5 -6 -5z"/>
<path d="M2925 3585 c-91 -16 -203 -55 -324 -110 -104 -48 -168 -58 -191 -30
-11 13 -7 19 11 17 4 -1 14 7 24 18 13 14 16 28 11 53 -14 75 -121 74 -174 -1
-48 -66 -36 -157 30 -228 79 -86 208 -96 413 -31 172 54 257 70 340 64 84 -6
121 -25 141 -74 25 -58 25 -58 -114 -59 -327 -2 -642 -161 -884 -445 -43 -50
-48 -61 -48 -104 0 -47 1 -48 19 -31 17 16 22 16 57 1 61 -25 100 -61 128
-117 l26 -52 0 -551 0 -552 -24 -12 c-26 -14 -51 -7 -40 11 12 19 6 66 -12 93
-34 53 -104 65 -160 28 -61 -40 -56 -172 9 -241 63 -68 192 -92 309 -57 48 14
51 13 80 -8 23 -17 43 -22 95 -22 60 0 67 2 94 33 l29 32 0 -92 c0 -101 -14
-154 -42 -161 -20 -6 -35 9 -16 15 15 5 3 37 -16 44 -21 8 -68 -17 -76 -41
-11 -32 7 -81 37 -101 34 -22 144 -25 182 -5 22 12 27 11 41 -6 42 -53 150
-84 275 -79 107 5 148 16 213 60 46 31 51 32 85 20 46 -16 142 -9 180 13 35
21 64 58 72 94 5 19 0 34 -18 55 -22 25 -28 27 -53 19 -36 -13 -40 -29 -15
-54 13 -13 16 -21 9 -22 -7 -1 -23 -3 -36 -4 -29 -3 -67 27 -79 62 -7 21 -11
1788 -4 1837 1 11 51 -22 78 -52 l21 -25 0 -725 c0 -399 -4 -736 -9 -749 -10
-26 -29 -31 -29 -8 0 25 -20 17 -31 -12 -15 -39 -3 -89 28 -113 35 -27 111
-27 146 0 26 21 26 21 46 1 41 -41 174 -51 237 -18 116 60 117 227 2 227 -31
0 -71 -28 -64 -46 10 -26 -41 -16 -63 12 -21 26 -21 34 -21 686 0 598 2 663
17 688 21 36 59 44 85 18 12 -12 26 -17 39 -13 28 9 26 78 -3 121 -28 40 -56
54 -113 54 -40 0 -45 3 -79 49 -55 78 -151 145 -269 190 -22 8 -23 14 -22 83
2 99 10 118 44 118 35 0 43 -8 30 -31 -9 -17 -6 -19 26 -19 38 0 84 34 86 65
6 73 -1 97 -39 135 -60 61 -155 75 -232 35 -27 -14 -33 -14 -62 1 -107 55
-288 76 -433 49z m274 -612 c18 -4 18 -37 18 -955 0 -911 -1 -952 -19 -970
-24 -24 -92 -27 -130 -7 -17 9 -18 54 -18 719 0 654 1 710 17 726 11 11 18 13
21 5 6 -18 57 -13 86 10 41 32 34 121 -13 156 -27 20 -89 24 -125 9 -33 -14
-35 -13 -58 11 -78 85 -231 123 -316 79 -57 -30 -97 -103 -86 -158 5 -23 5
-22 -13 2 -10 14 -35 44 -56 66 l-37 41 45 42 c106 98 261 177 410 211 75 16
232 24 274 13z m-511 -483 c13 0 36 7 52 15 l30 16 0 -623 c0 -566 -1 -620
-16 -600 -14 21 -62 33 -49 12 3 -5 -3 -10 -14 -10 -13 0 -27 12 -38 33 -17
29 -18 76 -20 576 -2 463 -4 549 -17 582 l-16 38 33 -19 c17 -11 42 -20 55
-20z"/>
<path d="M1222 2579 c-65 -63 -97 -213 -76 -355 17 -121 78 -284 135 -365 l18
-26 -46 -7 c-68 -9 -111 -7 -118 5 -5 7 -13 5 -24 -5 -27 -24 -18 -162 21
-345 68 -319 230 -598 499 -862 269 -264 539 -409 939 -505 154 -37 233 -50
370 -60 89 -7 136 -20 144 -39 8 -21 49 -18 63 4 13 20 39 26 158 36 234 20
456 73 693 165 457 176 898 631 1051 1085 40 119 71 276 79 403 7 89 5 105 -9
118 -11 10 -19 12 -24 5 -7 -12 -71 -14 -127 -3 l-36 7 38 64 c90 149 141 391
110 522 -32 137 -108 218 -168 180 -22 -14 -10 -47 15 -43 28 4 43 -24 43 -78
0 -82 -59 -200 -150 -302 -42 -47 -39 -48 -59 37 -29 128 -147 304 -215 321
-57 14 -102 -24 -89 -75 8 -33 73 -41 73 -10 0 6 -4 7 -10 4 -5 -3 -10 1 -10
9 0 20 10 20 36 1 56 -38 58 -218 5 -370 -18 -49 -66 -157 -107 -240 -41 -82
-74 -158 -74 -167 0 -17 5 -22 92 -82 l47 -33 -38 -84 c-106 -239 -298 -475
-488 -602 -212 -141 -536 -246 -740 -239 -61 1 -114 2 -273 0 -90 -1 -257 32
-389 76 -96 32 -253 104 -259 118 -2 5 -8 8 -14 8 -18 0 -152 98 -214 157
-145 138 -302 372 -359 534 l-13 37 69 46 c38 25 69 53 69 62 0 9 -36 88 -79
177 -109 221 -143 325 -143 436 0 56 5 99 15 123 16 37 51 66 61 49 4 -5 0
-11 -6 -14 -10 -3 -10 -8 -2 -17 29 -31 84 23 63 62 -14 27 -53 42 -86 33 -36
-9 -111 -86 -150 -156 -32 -56 -68 -152 -77 -204 -2 -17 -5 -32 -5 -34 -2 -11
-58 51 -102 113 -75 106 -107 214 -84 285 5 18 12 21 31 17 29 -8 43 16 24 39
-21 25 -63 18 -98 -16z"/>
<path d="M2095 2576 c-12 -17 -14 -35 -9 -61 5 -31 3 -39 -16 -52 -48 -34 -69
-131 -37 -173 7 -9 3 -8 -9 3 -21 17 -21 17 -28 -14 -11 -54 -7 -85 13 -103
28 -26 54 -26 73 -2 17 21 18 21 18 -13 0 -26 -8 -41 -36 -67 -19 -19 -39 -34
-43 -34 -5 0 -11 15 -15 32 -3 18 -19 46 -35 63 -16 16 -31 39 -33 50 -4 18
-6 17 -18 -8 -11 -22 -11 -32 0 -51 11 -21 9 -31 -16 -80 -27 -55 -28 -56 -11
-91 17 -35 17 -36 -3 -25 -11 6 -20 16 -20 23 0 7 -5 4 -11 -6 -25 -43 25
-211 72 -240 10 -6 19 -22 19 -35 0 -33 51 -78 112 -99 30 -11 53 -25 56 -35
2 -10 8 -15 13 -12 12 7 11 55 0 73 -6 9 -6 22 0 32 13 26 -1 54 -41 81 -26
18 -35 31 -35 51 1 27 -9 35 -20 17 -12 -20 -24 -10 -34 28 -27 97 63 213 139
182 35 -14 46 -39 26 -58 -15 -15 -41 -8 -31 9 4 5 -1 9 -9 9 -10 0 -16 -9
-16 -24 0 -34 49 -51 94 -32 55 23 105 116 101 186 -1 14 -3 38 -3 54 -2 34
-18 25 -24 -13 -4 -33 -46 -61 -99 -68 l-44 -6 33 37 c58 67 65 107 30 189
-12 29 -23 54 -26 57 -2 3 -15 -8 -28 -25 -24 -29 -25 -29 -39 -11 -21 28 -19
34 17 68 41 38 44 91 10 137 -16 22 -21 38 -16 56 8 32 -1 32 -21 1z"/>
<path d="M4113 2576 c3 -19 -3 -40 -19 -64 -33 -47 -31 -86 4 -120 38 -35 45
-58 26 -77 -15 -14 -18 -13 -41 11 l-25 27 -24 -49 c-40 -82 -29 -144 37 -213
l23 -24 -44 6 c-55 7 -90 33 -105 77 -11 31 -12 32 -17 12 -12 -44 0 -131 24
-173 39 -71 104 -103 147 -73 24 17 28 54 6 54 -8 0 -14 -5 -13 -12 4 -18 -29
-21 -35 -3 -10 24 2 43 34 54 55 19 111 -23 133 -100 18 -61 -5 -148 -29 -109
-11 18 -23 11 -18 -10 6 -24 -12 -49 -44 -61 -31 -12 -51 -54 -36 -78 7 -11 8
-23 2 -32 -5 -8 -9 -30 -9 -49 0 -35 1 -35 18 -14 9 11 38 28 63 38 52 19 111
71 107 95 -1 9 12 32 30 51 35 38 71 136 67 185 -4 55 -4 56 -26 34 -22 -22
-39 -19 -22 3 22 28 20 58 -4 105 -22 40 -24 52 -15 76 8 21 8 36 0 55 -11 26
-12 26 -15 5 -3 -13 -12 -28 -22 -35 -27 -20 -51 -60 -51 -85 0 -28 -3 -28
-38 -6 -40 26 -51 44 -52 83 0 34 0 34 15 13 19 -27 52 -23 78 9 15 18 17 32
12 68 -8 55 -10 56 -32 39 -15 -11 -16 -11 -5 1 6 8 12 35 12 60 0 45 -17 79
-62 124 -14 13 -15 22 -8 36 15 28 12 45 -11 71 l-20 24 4 -29z"/>
</g>
</svg>
